{
  "accessors": [
    {
      "bufferView": 2,
      "componentType": 5126,
      "count": 600,
      "max": [
        0.007104999851435423,
        -0.06828799843788147,
        0.03693800047039986
      ],
      "min": [
        -0.004261999856680632,
        -0.0892769992351532,
        0.023603999987244606
      ],
      "type": "VEC3"
    },
    {
      "bufferView": 2,
      "byteOffset": 7200,
      "componentType": 5126,
      "count": 600,
      "max": [
        0.9667321443557739,
        0.9924054145812988,
        0.960279107093811
      ],
      "min": [
        -0.9667321443557739,
        -0.9924054145812988,
        -0.960279107093811
      ],
      "type": "VEC3"
    },
    {
      "bufferView": 1,
      "componentType": 5126,
      "count": 600,
      "max": [
        1.0,
        1.0
      ],
      "min": [
        0.0,
        1.0
      ],
      "type": "VEC2"
    },
    {
      "bufferView": 0,
      "componentType": 5125,
      "count": 1152,
      "type": "SCALAR"
    },
    {
      "bufferView": 2,
      "byteOffset": 14400,
      "componentType": 5126,
      "count": 73,
      "max": [
        0.006364000029861927,
        0.08298300206661224,
        0.03622699901461601
      ],
      "min": [
        -0.006194999907165766,
        -0.10316800326108932,
        0.006146000232547522
      ],
      "type": "VEC3"
    },
    {
      "bufferView": 2,
      "byteOffset": 15276,
      "componentType": 5126,
      "count": 73,
      "max": [
        0.9667321443557739,
        0.38541296124458313,
        0.960279107093811
      ],
      "min": [
        -0.9667321443557739,
        -0.9924054145812988,
        -0.9613955020904541
      ],
      "type": "VEC3"
    },
    {
      "bufferView": 1,
      "byteOffset": 4800,
      "componentType": 5126,
      "count": 73,
      "max": [
        1.0152089595794678,
        0.9753689765930176
      ],
      "min": [
        -0.014697999693453312,
        0.15852400660514832
      ],
      "type": "VEC2"
    },
    {
      "bufferView": 0,
      "byteOffset": 4608,
      "componentType": 5125,
      "count": 120,
      "type": "SCALAR"
    },
    {
      "bufferView": 2,
      "byteOffset": 16152,
      "componentType": 5126,
      "count": 160,
      "max": [
        0.002469999948516488,
        0.09395500272512436,
        0.014605999924242496
      ],
      "min": [
        -0.005412000231444836,
        0.08079800009727478,
        0.0067349998280406
      ],
      "type": "VEC3"
    },
    {
      "bufferView": 2,
      "byteOffset": 18072,
      "componentType": 5126,
      "count": 160,
      "max": [
        0.9460688829421997,
        0.7262744307518005,
        0.897803544998169
      ],
      "min": [
        -0.9612663388252258,
        0.09750117361545563,
        -0.9891666173934937
      ],
      "type": "VEC3"
    },
    {
      "bufferView": 1,
      "byteOffset": 5384,
      "componentType": 5126,
      "count": 160,
      "max": [
        1.0179040431976318,
        0.5
      ],
      "min": [
        -0.01743900030851364,
        0.5
      ],
      "type": "VEC2"
    },
    {
      "bufferView": 0,
      "byteOffset": 5088,
      "componentType": 5125,
      "count": 240,
      "type": "SCALAR"
    },
    {
      "bufferView": 2,
      "byteOffset": 19992,
      "componentType": 5126,
      "count": 688,
      "max": [
        -0.0009679999784566462,
        0.09604799747467041,
        0.009955000132322311
      ],
      "min": [
        -0.0024059999268501997,
        0.09288600087165833,
        0.008484000340104103
      ],
      "type": "VEC3"
    },
    {
      "bufferView": 2,
      "byteOffset": 28248,
      "componentType": 5126,
      "count": 688,
      "max": [
        0.9991547465324402,
        0.9839513301849365,
        0.9783013463020325
      ],
      "min": [
        -0.9947980642318726,
        -0.27669793367385864,
        -0.9999973773956299
      ],
      "type": "VEC3"
    },
    {
      "bufferView": 1,
      "byteOffset": 6664,
      "componentType": 5126,
      "count": 688,
      "max": [
        1.0042569637298584,
        0.5
      ],
      "min": [
        -0.003986999858170748,
        0.5
      ],
      "type": "VEC2"
    },
    {
      "bufferView": 0,
      "byteOffset": 6048,
      "componentType": 5125,
      "count": 1032,
      "type": "SCALAR"
    },
    {
      "bufferView": 2,
      "byteOffset": 36504,
      "componentType": 5126,
      "count": 144,
      "max": [
        0.006570000201463699,
        0.08323299884796143,
        0.03762400150299072
      ],
      "min": [
        -0.00570600014179945,
        -0.10316800326108932,
        0.00648299977183342
      ],
      "type": "VEC3"
    },
    {
      "bufferView": 2,
      "byteOffset": 38232,
      "componentType": 5126,
      "count": 144,
      "max": [
        0.9667321443557739,
        0.6969436407089233,
        0.960279107093811
      ],
      "min": [
        -0.9667321443557739,
        -0.9605320692062378,
        -0.960279107093811
      ],
      "type": "VEC3"
    },
    {
      "bufferView": 1,
      "byteOffset": 12168,
      "componentType": 5126,
      "count": 144,
      "max": [
        1.016260027885437,
        1.0
      ],
      "min": [
        -0.01586199924349785,
        0.016371000558137894
      ],
      "type": "VEC2"
    },
    {
      "bufferView": 0,
      "byteOffset": 10176,
      "componentType": 5125,
      "count": 240,
      "type": "SCALAR"
    }
  ],
  "asset": {
    "extras": {
      "author": "bihanz (https://sketchfab.com/bihanz)",
      "license": "SKETCHFAB Standard (https://sketchfab.com/licenses)",
      "source": "https://sketchfab.com/3d-models/low-poly-pencil-29b83497785a4f17847e6b71276cc1c3",
      "title": "Low Poly Pencil"
    },
    "generator": "Sketchfab-16.23.0",
    "version": "2.0"
  },
  "bufferViews": [
    {
      "buffer": 0,
      "byteLength": 11136,
      "name": "floatBufferViews",
      "target": 34963
    },
    {
      "buffer": 0,
      "byteLength": 13320,
      "byteOffset": 11136,
      "byteStride": 8,
      "name": "floatBufferViews",
      "target": 34962
    },
    {
      "buffer": 0,
      "byteLength": 39960,
      "byteOffset": 24456,
      "byteStride": 12,
      "name": "floatBufferViews",
      "target": 34962
    }
  ],
  "buffers": [
    {
      "byteLength": 64416,
      "uri": "scene.bin"
    }
  ],
  "materials": [
    {
      "doubleSided": true,
      "name": "pencil",
      "pbrMetallicRoughness": {
        "baseColorFactor": [
          0.185586,
          0.157046,
          0.154882,
          1.0
        ],
        "metallicFactor": 0.0,
        "roughnessFactor": 0.8253105926527476
      }
    },
    {
      "doubleSided": true,
      "name": "pencil.001",
      "pbrMetallicRoughness": {
        "baseColorFactor": [
          0.418273,
          0.352312,
          0.192651,
          1.0
        ],
        "metallicFactor": 0.0,
        "roughnessFactor": 0.7915644752148595
      }
    },
    {
      "doubleSided": true,
      "name": "pencil.002",
      "pbrMetallicRoughness": {
        "baseColorFactor": [
          0.744329,
          0.291198,
          0.071786,
          1.0
        ],
        "metallicFactor": 0.0,
        "roughnessFactor": 0.7915644752148595
      }
    },
    {
      "doubleSided": true,
      "name": "pencil.003",
      "pbrMetallicRoughness": {
        "baseColorFactor": [
          0.095668,
          0.083143,
          0.075018,
          1.0
        ],
        "metallicFactor": 0.0,
        "roughnessFactor": 0.863836509233425
      }
    },
    {
      "doubleSided": true,
      "name": "pencil.004",
      "pbrMetallicRoughness": {
        "baseColorFactor": [
          0.754996,
          0.784348,
          0.77526,
          1.0
        ],
        "metallicFactor": 0.0
      }
    }
  ],
  "meshes": [
    {
      "name": "Object_0",
      "primitives": [
        {
          "attributes": {
            "NORMAL": 1,
            "POSITION": 0,
            "TEXCOORD_0": 2
          },
          "indices": 3,
          "material": 0,
          "mode": 4
        }
      ]
    },
    {
      "name": "Object_1",
      "primitives": [
        {
          "attributes": {
            "NORMAL": 5,
            "POSITION": 4,
            "TEXCOORD_0": 6
          },
          "indices": 7,
          "material": 1,
          "mode": 4
        }
      ]
    },
    {
      "name": "Object_2",
      "primitives": [
        {
          "attributes": {
            "NORMAL": 9,
            "POSITION": 8,
            "TEXCOORD_0": 10
          },
          "indices": 11,
          "material": 2,
          "mode": 4
        }
      ]
    },
    {
      "name": "Object_3",
      "primitives": [
        {
          "attributes": {
            "NORMAL": 13,
            "POSITION": 12,
            "TEXCOORD_0": 14
          },
          "indices": 15,
          "material": 3,
          "mode": 4
        }
      ]
    },
    {
      "name": "Object_4",
      "primitives": [
        {
          "attributes": {
            "NORMAL": 17,
            "POSITION": 16,
            "TEXCOORD_0": 18
          },
          "indices": 19,
          "material": 4,
          "mode": 4
        }
      ]
    }
  ],
  "nodes": [
    {
      "children": [
        1
      ],
      "matrix": [
        0.0,
        1.0,
        4.440892098500626e-16,
        0.0,
        -1.0,
        -4.930380657631324e-32,
        2.220446049250313e-16,
        0.0,
        2.220446049250313e-16,
        -4.440892098500626e-16,
        1.0,
        0.0,
        0.0,
        0.0,
        0.0,
        1.0
      ],
      "name": "Sketchfab_model"
    },
    {
      "children": [
        2,
        3,
        4,
        5,
        6
      ],
      "name": "low polly pencil.obj.cleaner.materialmerger.gles"
    },
    {
      "mesh": 0,
      "name": "Object_2"
    },
    {
      "mesh": 1,
      "name": "Object_3"
    },
    {
      "mesh": 2,
      "name": "Object_4"
    },
    {
      "mesh": 3,
      "name": "Object_5"
    },
    {
      "mesh": 4,
      "name": "Object_6"
    }
  ],
  "scene": 0,
  "scenes": [
    {
      "name": "Sketchfab_Scene",
      "nodes": [
        0
      ]
    }
  ]
}
