{
  "accessors": [
    {
      "bufferView": 2,
      "componentType": 5126,
      "count": 65534,
      "max": [
        0.9984616041183472,
        0.9956629872322083,
        1.000000238418579
      ],
      "min": [
        -0.9987718462944031,
        -0.9943031072616577,
        -1.000000238418579
      ],
      "type": "VEC3"
    },
    {
      "bufferView": 2,
      "byteOffset": 786408,
      "componentType": 5126,
      "count": 65534,
      "max": [
        0.9999997615814209,
        0.9999977350234985,
        1.0
      ],
      "min": [
        -0.9999998807907104,
        -0.9999960064888,
        -1.0
      ],
      "type": "VEC3"
    },
    {
      "bufferView": 1,
      "componentType": 5126,
      "count": 65534,
      "max": [
        0.8750001192092896,
        1.0000001192092896
      ],
      "min": [
        0.125,
        0.0
      ],
      "type": "VEC2"
    },
    {
      "bufferView": 0,
      "componentType": 5125,
      "count": 99351,
      "type": "SCALAR"
    },
    {
      "bufferView": 2,
      "byteOffset": 1572816,
      "componentType": 5126,
      "count": 13581,
      "max": [
        0.9938459396362305,
        0.9933074116706848,
        1.0000001192092896
      ],
      "min": [
        0.6961091756820679,
        -0.9943031072616577,
        -1.000000238418579
      ],
      "type": "VEC3"
    },
    {
      "bufferView": 2,
      "byteOffset": 1735788,
      "componentType": 5126,
      "count": 13581,
      "max": [
        0.9997792840003967,
        0.9999944567680359,
        0.9999989867210388
      ],
      "min": [
        -0.9995262026786804,
        -0.9999960064888,
        -1.0
      ],
      "type": "VEC3"
    },
    {
      "bufferView": 1,
      "byteOffset": 524272,
      "componentType": 5126,
      "count": 13581,
      "max": [
        0.6561269760131836,
        0.7811270356178284
      ],
      "min": [
        0.3370110094547272,
        0.46160387992858887
      ],
      "type": "VEC2"
    },
    {
      "bufferView": 0,
      "byteOffset": 397404,
      "componentType": 5125,
      "count": 20457,
      "type": "SCALAR"
    }
  ],
  "asset": {
    "extras": {
      "author": "dayoung.ko (https://sketchfab.com/dayoung.ko)",
      "license": "CC-BY-4.0 (http://creativecommons.org/licenses/by/4.0/)",
      "source": "https://sketchfab.com/3d-models/gallery-bench-20afac373c45406c96f5a30d2e803291",
      "title": "Gallery Bench"
    },
    "generator": "Sketchfab-12.77.0",
    "version": "2.0"
  },
  "bufferViews": [
    {
      "buffer": 0,
      "byteLength": 479232,
      "name": "floatBufferViews",
      "target": 34963
    },
    {
      "buffer": 0,
      "byteLength": 632920,
      "byteOffset": 479232,
      "byteStride": 8,
      "name": "floatBufferViews",
      "target": 34962
    },
    {
      "buffer": 0,
      "byteLength": 1898760,
      "byteOffset": 1112152,
      "byteStride": 12,
      "name": "floatBufferViews",
      "target": 34962
    }
  ],
  "buffers": [
    {
      "byteLength": 3010912,
      "uri": "scene.bin"
    }
  ],
  "materials": [
    {
      "doubleSided": true,
      "name": "Material.068",
      "pbrMetallicRoughness": {
        "metallicFactor": 0.603774,
        "roughnessFactor": 0.5
      }
    }
  ],
  "meshes": [
    {
      "name": "Object_0",
      "primitives": [
        {
          "attributes": {
            "NORMAL": 1,
            "POSITION": 0,
            "TEXCOORD_0": 2
          },
          "indices": 3,
          "material": 0,
          "mode": 4
        }
      ]
    },
    {
      "name": "Object_1",
      "primitives": [
        {
          "attributes": {
            "NORMAL": 5,
            "POSITION": 4,
            "TEXCOORD_0": 6
          },
          "indices": 7,
          "material": 0,
          "mode": 4
        }
      ]
    }
  ],
  "nodes": [
    {
      "children": [
        1
      ],
      "matrix": [
        1.0,
        0.0,
        0.0,
        0.0,
        0.0,
        2.220446049250313e-16,
        -1.0,
        0.0,
        0.0,
        1.0,
        2.220446049250313e-16,
        0.0,
        0.0,
        0.0,
        0.0,
        1.0
      ],
      "name": "Sketchfab_model"
    },
    {
      "children": [
        2
      ],
      "name": "root"
    },
    {
      "children": [
        3
      ],
      "matrix": [
        1.0,
        0.0,
        0.0,
        0.0,
        0.0,
        2.220446049250313e-16,
        1.0,
        0.0,
        0.0,
        -1.0,
        2.220446049250313e-16,
        0.0,
        0.0,
        0.0,
        0.0,
        1.0
      ],
      "name": "GLTF_SceneRootNode"
    },
    {
      "children": [
        4,
        5
      ],
      "matrix": [
        4.956459045410156,
        0.0,
        0.0,
        0.0,
        0.0,
        1.2785115242004395,
        0.0,
        0.0,
        0.0,
        0.0,
        1.2785115242004395,
        0.0,
        -8.82493782043457,
        0.6488759517669678,
        -75.44583129882813,
        1.0
      ],
      "name": "Cube.132_6"
    },
    {
      "mesh": 0,
      "name": "Object_4"
    },
    {
      "mesh": 1,
      "name": "Object_5"
    }
  ],
  "scene": 0,
  "scenes": [
    {
      "name": "Sketchfab_Scene",
      "nodes": [
        0
      ]
    }
  ]
}
