{
  "asset": {
    "version": "2.0",
    "generator": "THREE.GLTFExporter r181"
  },
  "scenes": [
    {
      "name": "AuxScene",
      "nodes": [
        0
      ]
    }
  ],
  "scene": 0,
  "nodes": [
    {
      "children": [
        1
      ]
    },
    {
      "children": [
        2
      ]
    },
    {
      "children": [
        3
      ]
    },
    {
      "children": [
        4
      ]
    },
    {
      "rotation": [
        0,
        0.3826834323650898,
        0,
        0.9238795325112867
      ],
      "scale": [
        4.166666666666667,
        -4.166666666666667,
        4.166666666666667
      ],
      "children": [
        5
      ]
    },
    {
      "children": [
        6
      ]
    },
    {
      "translation": [
        -12,
        -12,
        -1.25
      ],
      "mesh": 0
    }
  ],
  "bufferViews": [
    {
      "buffer": 0,
      "byteOffset": 0,
      "byteLength": 92448,
      "target": 34962,
      "byteStride": 12
    },
    {
      "buffer": 0,
      "byteOffset": 92448,
      "byteLength": 61632,
      "target": 34962,
      "byteStride": 8
    },
    {
      "buffer": 0,
      "byteOffset": 154080,
      "byteLength": 92448,
      "target": 34962,
      "byteStride": 12
    }
  ],
  "buffers": [
    {
      "byteLength": 246528,
      "uri": "data:application/octet-stream;base64,"
    }
  ],
  "accessors": [
    {
      "bufferView": 0,
      "componentType": 5126,
      "count": 7704,
      "max": [
        22,
        22,
        2.5
      ],
      "min": [
        2,
        2,
        0
      ],
      "type": "VEC3"
    },
    {
      "bufferView": 1,
      "componentType": 5126,
      "count": 7704,
      "max": [
        22,
        22
      ],
      "min": [
        2,
        -1.5
      ],
      "type": "VEC2"
    },
    {
      "bufferView": 2,
      "componentType": 5126,
      "count": 7704,
      "max": [
        0.999858021736145,
        0.9999467134475708,
        1
      ],
      "min": [
        -0.999858021736145,
        -0.9999462962150574,
        -1
      ],
      "type": "VEC3"
    }
  ],
  "materials": [
    {
      "pbrMetallicRoughness": {
        "baseColorFactor": [
          0.011612245176281512,
          0.02028856305209031,
          0.0722718506743852,
          1
        ],
        "metallicFactor": 1,
        "roughnessFactor": 0.05
      },
      "doubleSided": true,
      "extras": {
        "originalProperties": {
          "color": 1845068,
          "roughness": 0.05,
          "metalness": 1,
          "clearcoat": 0.3,
          "clearcoatRoughness": 0.015,
          "transmission": 0,
          "ior": 1.4,
          "opacity": 1,
          "sheen": 0,
          "sheenRoughness": 0
        },
        "isHole": false
      },
      "extensions": {
        "KHR_materials_ior": {
          "ior": 1.4
        },
        "KHR_materials_clearcoat": {
          "clearcoatFactor": 0.3,
          "clearcoatRoughnessFactor": 0.015
        },
        "KHR_materials_anisotropy": {
          "anisotropyStrength": 0.2,
          "anisotropyRotation": 0
        }
      }
    }
  ],
  "meshes": [
    {
      "primitives": [
        {
          "mode": 4,
          "attributes": {
            "POSITION": 0,
            "TEXCOORD_0": 1,
            "NORMAL": 2
          },
          "material": 0
        }
      ]
    }
  ],
  "extensionsUsed": [
    "KHR_materials_ior",
    "KHR_materials_clearcoat",
    "KHR_materials_anisotropy"
  ]
}